<?xml version="1.0" encoding="utf-8"?>
<!-- Generator: Adobe Illustrator 22.1.0, SVG Export Plug-In . SVG Version: 6.00 Build 0)  -->
<svg version="1.1" id="Capa_1" xmlns="http://www.w3.org/2000/svg" xmlns:xlink="http://www.w3.org/1999/xlink" x="0px" y="0px"
	 viewBox="0 0 598.5 336.7" style="enable-background:new 0 0 598.5 336.7;" xml:space="preserve">
<style type="text/css">
	.st0{fill:#898A8D;}
	.st1{fill:#3DAE2B;}
	.st2{fill:#1D8649;}
	.st3{fill:#93D500;}
</style>
<g>
	<g>
		<path class="st0" d="M112,172.9c-0.4,0.6-0.9,1.1-1.3,1.4c-0.4,0.3-1.1,0.5-1.9,0.5s-1.7-0.3-2.7-1.1c-1-0.7-2.2-1.5-3.7-2.3
			c-1.5-0.8-3.3-1.6-5.4-2.3c-2.1-0.7-4.7-1.1-7.8-1.1c-4.1,0-7.7,0.7-10.9,2.2c-3.1,1.5-5.8,3.6-7.9,6.4c-2.1,2.8-3.7,6.2-4.8,10.2
			s-1.6,8.4-1.6,13.4c0,5.2,0.6,9.7,1.7,13.7c1.2,4,2.8,7.4,4.9,10.1c2.1,2.7,4.7,4.8,7.7,6.2c3,1.4,6.4,2.1,10.2,2.1
			c3.6,0,6.5-0.4,8.9-1.3c2.3-0.9,4.3-1.8,5.8-2.9s2.8-2,3.8-2.9s2-1.3,3-1.3c1.3,0,2.2,0.5,2.8,1.4l4.1,5.5
			c-3.6,4.5-8.2,7.9-13.7,10c-5.5,2.1-11.2,3.2-17.3,3.2c-5.2,0-10.1-1-14.6-2.9c-4.5-2-8.4-4.8-11.7-8.5c-3.3-3.7-5.9-8.3-7.8-13.7
			c-1.9-5.4-2.9-11.6-2.9-18.6c0-6.3,0.9-12.2,2.6-17.6c1.7-5.4,4.3-10,7.6-13.9c3.3-3.9,7.5-6.9,12.4-9.1
			c4.9-2.2,10.6-3.3,16.9-3.3c5.9,0,11.1,1,15.6,2.9c4.5,1.9,8.5,4.7,12,8.2L112,172.9z"/>
		<path class="st0" d="M132.1,242.9v-85.1h8.8c2.1,0,3.4,1,4,3.1l1.1,8.7c3.1-3.9,6.6-7,10.4-9.5c3.8-2.5,8.3-3.7,13.4-3.7
			c5.7,0,10.3,1.6,13.8,4.8c3.5,3.2,6,7.5,7.6,12.9c1.2-3.1,2.7-5.7,4.6-8c1.9-2.2,4-4.1,6.4-5.5c2.4-1.5,4.9-2.5,7.6-3.2
			c2.7-0.7,5.4-1,8.2-1c4.4,0,8.4,0.7,11.8,2.1c3.5,1.4,6.4,3.5,8.8,6.3c2.4,2.7,4.2,6.1,5.5,10.1c1.3,4,1.9,8.6,1.9,13.7v54.2
			h-14.8v-54.2c0-6.7-1.4-11.7-4.3-15.2c-2.9-3.4-7-5.2-12.5-5.2c-2.4,0-4.7,0.4-6.9,1.3c-2.2,0.9-4.1,2.1-5.8,3.8
			c-1.7,1.7-3,3.8-3.9,6.3c-1,2.5-1.5,5.5-1.5,8.9v54.2h-14.8v-54.2c0-6.8-1.4-11.9-4.1-15.3c-2.7-3.4-6.7-5-11.9-5
			c-3.6,0-7,1-10.2,3c-3.1,2-6,4.7-8.6,8.1v63.4H132.1z"/>
		<path class="st0" d="M268.2,271.7V157.8h8.8c2.1,0,3.4,1,4,3.1l1.2,10.1c3.6-4.4,7.7-8,12.3-10.7c4.6-2.7,9.9-4,16-4
			c4.8,0,9.2,0.9,13.1,2.8c3.9,1.9,7.3,4.7,10,8.3c2.8,3.7,4.9,8.2,6.4,13.7c1.5,5.4,2.2,11.7,2.2,18.7c0,6.3-0.8,12.1-2.5,17.5
			c-1.7,5.4-4,10.1-7.1,14c-3.1,3.9-6.9,7.1-11.4,9.3c-4.5,2.3-9.6,3.4-15.2,3.4c-5.2,0-9.6-0.9-13.3-2.6c-3.7-1.7-6.9-4.2-9.7-7.4
			v37.6H268.2z M305.6,168.4c-4.8,0-9,1.1-12.6,3.4c-3.6,2.2-6.9,5.4-10,9.5v41.2c2.7,3.7,5.7,6.3,8.9,7.8c3.2,1.5,6.8,2.3,10.8,2.3
			c7.8,0,13.8-2.8,18-8.5c4.2-5.7,6.3-13.7,6.3-24.2c0-5.5-0.5-10.3-1.5-14.3c-1-4-2.4-7.2-4.2-9.8c-1.8-2.5-4.1-4.4-6.7-5.6
			C312,168.9,309,168.4,305.6,168.4z"/>
		<path class="st0" d="M417,172.9c-0.4,0.6-0.9,1.1-1.3,1.4c-0.4,0.3-1.1,0.5-1.9,0.5s-1.7-0.3-2.7-1.1c-1-0.7-2.2-1.5-3.7-2.3
			c-1.5-0.8-3.3-1.6-5.4-2.3c-2.1-0.7-4.7-1.1-7.8-1.1c-4.1,0-7.7,0.7-10.9,2.2c-3.2,1.5-5.8,3.6-7.9,6.4c-2.1,2.8-3.7,6.2-4.8,10.2
			c-1.1,4-1.6,8.4-1.6,13.4c0,5.2,0.6,9.7,1.7,13.7c1.2,4,2.8,7.4,4.9,10.1c2.1,2.7,4.7,4.8,7.7,6.2c3,1.4,6.4,2.1,10.2,2.1
			c3.6,0,6.5-0.4,8.9-1.3c2.3-0.9,4.3-1.8,5.8-2.9c1.5-1.1,2.8-2,3.8-2.9c1-0.9,2-1.3,3-1.3c1.3,0,2.2,0.5,2.8,1.4l4.1,5.5
			c-3.6,4.5-8.2,7.9-13.7,10c-5.5,2.1-11.2,3.2-17.3,3.2c-5.2,0-10.1-1-14.6-2.9c-4.5-2-8.4-4.8-11.7-8.5c-3.3-3.7-5.9-8.3-7.8-13.7
			c-1.9-5.4-2.9-11.6-2.9-18.6c0-6.3,0.9-12.2,2.6-17.6c1.7-5.4,4.3-10,7.6-13.9c3.3-3.9,7.5-6.9,12.4-9.1
			c4.9-2.2,10.6-3.3,16.9-3.3c5.9,0,11.1,1,15.6,2.9c4.5,1.9,8.5,4.7,12,8.2L417,172.9z"/>
	</g>
	<path class="st1" d="M466.6,156.3c6.4,2.7,13.4,4.4,20.7,4.8c10.7-29.9,23.9-58.8,39.3-77.8C515.9,75.2,503.9,65,503.9,65
		C485,80.9,473.5,117.5,466.6,156.3z"/>
	<path class="st2" d="M442.9,138c6.2,7.9,14.3,14.3,23.7,18.3c2.6-14.4,5.7-28.4,9.7-41.3c-10.8-6-23.2-13-23.2-13
		C447.3,110,444.3,122.8,442.9,138z"/>
	<path class="st3" d="M490.2,161.2c33.1,0,60-26.9,60-60c0-11.8-3.4-22.8-9.3-32.1c-21.8,16.2-39.9,53.3-53.7,92
		C488.3,161.1,489.2,161.2,490.2,161.2z"/>
</g>
</svg>
