<?xml version="1.0" encoding="UTF-8"?>
<!-- Generator: Adobe Illustrator 25.0.0, SVG Export Plug-In . SVG Version: 6.00 Build 0)  -->
<svg version="1.1" id="Capa_1" xmlns="http://www.w3.org/2000/svg" xmlns:xlink="http://www.w3.org/1999/xlink" x="0px" y="0px" viewBox="0 0 148 83" style="enable-background:new 0 0 148 83;" xml:space="preserve">
<style type="text/css">
	.st0{fill:#FFFFFF;}
</style>
<g id="Page-1">
	<g id="PRE-HOME-THM" transform="translate(-141, -17)">
		<g id="HEADER_x2F_MENU" transform="translate(141, 17)">
			<g>
				<g>
					<path class="st0" d="M88.8,14.7c0.1,0,0.3,0,0.4,0c4.8,0,9.6,0,14.5,0c0.3,0,0.4,0.1,0.5,0.4c2.6,7.3,5.2,14.5,7.9,21.7       c0.1,0.3,0.2,0.4,0.5,0.4c0.2,0,0.3-0.1,0.4-0.3c1.9-5.2,3.8-10.3,5.7-15.5c0.8-2.1,1.6-4.3,2.4-6.4c0.1-0.2,0.1-0.3,0.4-0.3       c4.3,0,8.6,0,12.9,0c0,0,0.1,0,0.2,0c0,12.2,0,24.3,0,36.5c-4.3,0-8.6,0-13,0c0-9-0.1-18-0.1-27c0,0,0,0-0.1,0       c-0.1,0.2-0.2,0.5-0.3,0.7c-3.1,8.6-6.2,17.3-9.2,25.9c-0.1,0.3-0.2,0.4-0.5,0.4c-1.8,0-3.6,0-5.4,0c-0.3,0-0.4-0.1-0.5-0.4       c-3.4-8.8-6.9-17.7-10.4-26.5c0-0.1-0.1-0.2-0.2-0.3c0,9-0.1,18.1-0.1,27.1c-2,0-3.9,0-5.8,0C88.8,39.1,88.8,26.9,88.8,14.7z"/>
					<path class="st0" d="M58.9,28.9c4.4,0,8.7,0,13.1,0c0-4.7,0-9.4,0-14.2c4.4,0,8.7,0,13,0c0,12.2,0,24.3,0,36.5       c-4.3,0-8.6,0-12.9,0c0-5.9,0-11.8,0-17.7c-4.4,0-8.8,0-13.3,0c0,5.9,0,11.7,0,17.7c-4.3,0-8.6,0-12.9,0c0-12.2,0-24.3,0-36.5       c0.1,0,0.3,0,0.4,0c4,0,8,0,12,0c0.4,0,0.4,0.1,0.4,0.4c0,4.4,0,8.8,0,13.3C58.9,28.5,58.9,28.7,58.9,28.9z"/>
					<path class="st0" d="M18.1,22.8c-2.6,0-5.2,0-7.7,0c0-2.7,0-5.4,0-8.1c10.4,0,20.7,0,31.1,0c0,2.6,0,5.2,0,7.8       c-3.5,0-6.9,0-10.5,0c0,9.6,0,19.1,0,28.7c-4.3,0-8.6,0-12.9,0C18.1,41.8,18.1,32.3,18.1,22.8z"/>
					<g>
						<path class="st0" d="M41.5,14.7c-10.4,0-20.8,0-31.1,0c0,2.7,0,5.4,0,8.1c2.6,0,5.1,0,7.7,0c0,9.5,0,18.9,0,28.4        c4.3,0,8.6,0,12.9,0c0-9.6,0-19.1,0-28.7c3.5,0,7,0,10.5,0C41.5,19.9,41.5,17.3,41.5,14.7z"/>
						<path class="st0" d="M59,33.6c4.4,0,8.8,0,13.3,0c0,5.9,0,11.8,0,17.7c4.3,0,8.6,0,12.9,0c0-12.2,0-24.3,0-36.5        c-4.3,0-8.7,0-13,0c0,4.7,0,9.5,0,14.2c-4.4,0-8.7,0-13.1,0c0-0.2,0-0.3,0-0.5c0-4.4,0-8.8,0-13.3c0-0.3-0.1-0.4-0.4-0.4        c-4,0-8,0-12,0c-0.1,0-0.3,0-0.4,0c0,12.2,0,24.4,0,36.5c4.3,0,8.6,0,12.9,0C59,45.3,59,39.4,59,33.6z"/>
						<path class="st0" d="M134.4,14.7c-4.3,0-8.6,0-12.9,0c-0.3,0-0.3,0.1-0.4,0.3c-0.8,2.1-1.6,4.3-2.4,6.4        c-1.9,5.2-3.8,10.3-5.7,15.5c-0.1,0.2-0.2,0.3-0.4,0.3c-0.3,0-0.4-0.1-0.5-0.4c-2.6-7.2-5.3-14.5-7.9-21.7        c-0.1-0.3-0.2-0.4-0.5-0.4c-4.8,0-9.6,0-14.5,0c-0.1,0-0.3,0-0.4,0c0,12.2,0,24.4,0,36.6c1.9,0,3.9,0,5.8,0        c0-9.1,0.1-18.1,0.1-27.1c0.1,0.1,0.2,0.2,0.2,0.3c3.5,8.8,6.9,17.7,10.4,26.5c0.1,0.3,0.2,0.4,0.5,0.4c1.8,0,3.6,0,5.4,0        c0.3,0,0.4-0.1,0.5-0.4c3.1-8.6,6.2-17.3,9.2-25.9c0.1-0.2,0.2-0.5,0.3-0.7c0,0,0,0,0.1,0c0,9,0.1,18,0.1,27c4.4,0,8.7,0,13,0        c0-12.2,0-24.4,0-36.5C134.5,14.7,134.5,14.7,134.4,14.7z"/>
					</g>
					<g>
						<path class="st0" d="M112.1,61.3c0,2.1,0,4.2,0,6.4c-0.1-0.2-0.2-0.3-0.3-0.5c-1.2-1.9-2.3-3.8-3.5-5.6        c-0.1-0.1-0.2-0.2-0.4-0.3c-0.6,0-1.1,0-1.8,0c0,3.3,0,6.6,0,10c0.7,0,1.3,0,2,0c0-2.1,0-4.2,0-6.3c0.1,0.1,0.2,0.2,0.3,0.3        c1.2,1.9,2.4,3.8,3.6,5.8c0.1,0.1,0.2,0.3,0.3,0.3c0.6,0,1.2,0,1.8,0c0-3.4,0-6.7,0-9.9C113.5,61.3,112.8,61.3,112.1,61.3z"/>
						<path class="st0" d="M74.4,61.2c-2.3-0.3-4.2,1-4.8,3.2c-0.3,1.3-0.3,2.5,0,3.8c0.2,0.9,0.6,1.6,1.3,2.2c1.1,1,2.4,1.2,3.8,1        c1.7-0.2,2.8-1.2,3.3-2.9c0.2-0.7,0.3-1.4,0.4-2c-0.1-0.7-0.1-1.1-0.2-1.6C77.9,62.8,76.5,61.4,74.4,61.2z M75.8,68.6        c-0.4,0.8-1,1.2-2,1.2c-0.9,0-1.5-0.4-1.9-1.2c-0.4-0.7-0.5-1.5-0.5-2.7c0.1-0.4,0.2-1.1,0.5-1.8c0.3-0.8,1-1.3,2-1.3        c1,0,1.6,0.5,2,1.3C76.4,65.6,76.4,67.1,75.8,68.6z"/>
						<path class="st0" d="M98.1,61.6c-0.6,1.6-1.1,3.2-1.7,4.8c-0.3,0.8-0.6,1.6-0.9,2.6c-0.2-0.6-0.4-1.1-0.6-1.6        c-0.7-1.9-1.3-3.8-2-5.8c0-0.1-0.2-0.3-0.2-0.3c-0.7,0-1.3,0-2,0c0,3.4,0,6.7,0,10c0.7,0,1.3,0,2,0c0-1.9,0-3.7,0-5.5        c0.1,0.1,0.1,0.2,0.2,0.3c0.5,1.4,1,2.8,1.5,4.2c0.4,1,0.4,1,1.5,1c0.3,0,0.4-0.1,0.5-0.3c0.6-1.7,1.2-3.3,1.8-5        c0-0.1,0.1-0.2,0.1-0.3c0,0,0,0,0.1,0c0,1.8,0,3.7,0,5.6c0.7,0,1.3,0,2,0c0-3.3,0-6.6,0-10c-0.6,0-1.2,0-1.9,0        C98.3,61.3,98.2,61.4,98.1,61.6z"/>
						<g>
							<path class="st0" d="M51.3,70.9c-0.3-0.8-0.6-1.6-1-2.4c-0.2-0.6-0.4-1.3-1-1.7c0.1,0,0.1-0.1,0.1-0.1c1.2-0.6,1.6-2,1.4-3.4         c-0.2-1.1-1-1.9-2.4-2c-1.5-0.1-2.9,0-4.4,0c0,3.3,0,6.6,0,9.9c0.7,0,1.3,0,2,0c0-1.3,0-2.5,0-3.8c0.3,0,0.5,0,0.7,0         c0.9,0,1.1,0.1,1.4,1c0.3,0.8,0.6,1.7,1,2.5c0,0.1,0.2,0.3,0.3,0.3c0.7,0,1.3,0,2,0C51.3,71.1,51.3,71,51.3,70.9z M47.7,65.8         c-0.5,0.1-1,0-1.4,0.1c-0.2,0-0.3-0.1-0.2-0.3c0-0.4,0-0.8,0-1.2c0-0.4,0-0.8,0-1.1c0-0.2,0.1-0.3,0.3-0.3         c0.5,0,0.9,0,1.4,0.1c0.8,0.1,1.2,0.6,1.2,1.3C48.9,65.2,48.5,65.7,47.7,65.8z"/>
						</g>
						<path class="st0" d="M38.3,67.3c0.7,0,1.4,0,2.1,0c0,0.7,0,1.3,0,2c0,0.1-0.1,0.2-0.2,0.3c-1.5,0.9-3.2,0.3-3.6-1.3        c-0.4-1.2-0.4-2.4,0-3.7c0.3-1.2,1.2-1.8,2.4-1.7c0.9,0,1.7,0.4,2.2,1.1c0.3-0.3,0.5-0.5,0.8-0.7c0.3-0.2,0.3-0.4,0.1-0.7        c-0.7-0.8-1.6-1.2-2.6-1.3c-2.4-0.3-4.4,1.1-5,3.4c-0.3,1.2-0.3,2.4,0,3.6c0.5,2.2,1.9,3.3,4.2,3.2c0.7,0,1.4-0.3,2-0.6        c0.2,0.2,0.3,0.4,0.4,0.5c0.4,0.1,0.9,0,1.4,0c0-1.8,0-3.6,0-5.4c-1.4,0-2.8,0-4.1,0C38.3,66.4,38.3,66.8,38.3,67.3z"/>
						<path class="st0" d="M57.9,61.3c0,0.2,0,0.3,0,0.4c0,1.9,0,3.9,0,5.8c0,0.5-0.1,0.9-0.3,1.4c-0.3,0.7-0.9,0.9-1.5,0.9        c-0.7,0-1.2-0.2-1.5-0.9c-0.2-0.4-0.3-0.9-0.3-1.4c0-1.9,0-3.9,0-5.8c0-0.1,0-0.3,0-0.4c-0.7,0-1.3,0-2.1,0c0,0.2,0,0.3,0,0.4        c0,1.9,0,3.8,0,5.7c0,0.4,0,0.7,0.1,1.1c0.2,1.5,1.1,2.5,2.6,2.8c0.8,0.1,1.6,0.1,2.4,0c1.3-0.2,2.1-1,2.5-2.3        c0.1-0.4,0.2-0.8,0.2-1.2c0-2,0-4.1,0-6.1c0-0.1,0-0.2,0-0.3C59.2,61.3,58.6,61.3,57.9,61.3z"/>
						<path class="st0" d="M84.8,66.9c1.4,0,2.7,0,4,0c0-0.6,0-1.1,0-1.6c-1.4,0-2.7,0-4,0c0-0.8,0-1.5,0-2.3c1.5,0,3,0,4.5,0        c0-0.6,0-1.1,0-1.6c-2.2,0-4.4,0-6.6,0c0,3.3,0,6.6,0,9.9c2.2,0,4.4,0,6.6,0c0-0.5,0-1,0-1.6c-1.5,0-3,0-4.5,0        C84.8,68.7,84.8,67.8,84.8,66.9z"/>
						<path class="st0" d="M65.7,61.4c-1.3-0.1-2.7,0-4.1-0.1c0,0,0,0,0,0c0,3.3,0,6.6,0,9.9c0.7,0,1.3,0,2,0c0-1.1,0-2.2,0-3.4        c0.5,0,0.9,0,1.4,0c2.1,0,3.3-1,3.5-2.9C68.7,63,67.9,61.6,65.7,61.4z M66.5,65.1c-0.1,0.7-0.6,1.1-1.3,1.1c-0.5,0-1,0-1.5,0        c0-1.1,0-2.1,0-3c0-0.1,0.2-0.2,0.2-0.2c0.5,0,0.9,0,1.4,0c0.7,0.1,1.1,0.5,1.2,1.1C66.5,64.5,66.5,64.8,66.5,65.1z"/>
						<path class="st0" d="M102.3,71.3c0.7,0,1.3,0,2,0c0-3.3,0-6.6,0-9.9c-0.7,0-1.3,0-2,0C102.3,64.7,102.3,68,102.3,71.3z"/>
					</g>
				</g>
			</g>
		</g>
	</g>
</g>
</svg>